<svg width="2321" height="1178" viewBox="0 0 2321 1178" fill="none" xmlns="http://www.w3.org/2000/svg">
<g opacity="0.5">
<path d="M585.829 743.989C594.515 778.292 618.823 806.953 655.426 829.397C692.031 851.842 740.905 868.051 798.645 877.446C914.125 896.236 1064.97 887.759 1223.81 847.536C1382.65 807.313 1519.35 742.973 1611.97 671.486C1658.28 635.741 1693.54 598.225 1715.06 561.063C1736.56 523.903 1744.3 487.127 1735.62 452.825C1726.93 418.522 1702.62 389.862 1666.02 367.418C1629.41 344.972 1580.54 328.763 1522.8 319.368C1407.32 300.578 1256.47 309.055 1097.63 349.278C938.798 389.501 802.095 453.841 709.477 525.328C663.167 561.073 627.899 598.589 606.388 635.751C584.879 672.911 577.142 709.687 585.829 743.989Z" stroke="url(#paint0_linear_18_127)"/>
<path d="M325.222 809.984C337.862 859.896 373.228 901.581 426.443 934.212C479.661 966.844 550.702 990.401 634.613 1004.06C802.434 1031.36 1021.64 1019.04 1252.44 960.594C1483.24 902.147 1681.89 808.654 1816.49 704.765C1883.79 652.819 1935.05 598.29 1966.33 544.262C1997.6 490.236 2008.86 436.743 1996.22 386.83C1983.58 336.918 1948.22 295.233 1895 262.602C1841.78 229.97 1770.74 206.413 1686.83 192.759C1519.01 165.452 1299.8 177.774 1069 236.22C838.204 294.667 639.554 388.16 504.956 492.049C437.657 543.995 386.39 598.524 355.118 652.552C323.846 706.578 312.583 760.071 325.222 809.984Z" stroke="url(#paint1_linear_18_127)"/>
<path d="M8.11261 890.287C25.5622 959.194 74.3843 1016.73 147.814 1061.75C221.246 1106.78 319.26 1139.28 435.017 1158.11C666.527 1195.79 968.909 1178.79 1287.28 1098.16C1605.65 1017.54 1879.67 888.576 2065.35 745.259C2158.19 673.6 2228.92 598.368 2272.08 523.818C2315.23 449.271 2330.78 375.435 2313.33 306.528C2295.88 237.621 2247.06 180.087 2173.63 135.062C2100.2 90.0343 2002.18 57.5351 1886.43 38.6997C1654.92 1.02912 1352.53 18.0287 1034.17 98.6501C715.799 179.272 441.771 308.238 256.092 451.555C163.252 523.214 92.5191 598.446 49.3677 672.996C6.21801 747.544 -9.33699 821.379 8.11261 890.287Z" stroke="url(#paint2_linear_18_127)"/>
</g>
<defs>
<linearGradient id="paint0_linear_18_127" x1="1695.8" y1="432.959" x2="699.739" y2="846.188" gradientUnits="userSpaceOnUse">
<stop stop-color="#484848"/>
<stop offset="0.491388" stop-color="#484848" stop-opacity="0.36"/>
<stop offset="1" stop-color="#484848"/>
</linearGradient>
<linearGradient id="paint1_linear_18_127" x1="1938.15" y1="358.022" x2="490.945" y2="958.416" gradientUnits="userSpaceOnUse">
<stop stop-color="#484848"/>
<stop offset="0.491388" stop-color="#484848" stop-opacity="0.36"/>
<stop offset="1" stop-color="#484848"/>
</linearGradient>
<linearGradient id="paint2_linear_18_127" x1="2233.05" y1="266.839" x2="236.883" y2="1094.98" gradientUnits="userSpaceOnUse">
<stop stop-color="#484848"/>
<stop offset="0.491388" stop-color="#484848" stop-opacity="0.36"/>
<stop offset="1" stop-color="#484848"/>
</linearGradient>
</defs>
</svg>
